<?xml version="1.0" encoding="UTF-8" ?>
<svg version="1.1" width="32" height="32" xmlns="http://www.w3.org/2000/svg" shape-rendering="crispEdges">
<rect x="11" y="0" width="1" height="1" fill="#FFFFFF" />
<rect x="12" y="0" width="1" height="1" fill="#FFFFFF" />
<rect x="14" y="0" width="1" height="1" fill="#FFFFFF" />
<rect x="16" y="0" width="1" height="1" fill="#FFFFFF" />
<rect x="18" y="0" width="1" height="1" fill="#FFFFFF" />
<rect x="19" y="0" width="1" height="1" fill="#FFFFFF" />
<rect x="11" y="1" width="1" height="1" fill="#FFFFFF" />
<rect x="19" y="1" width="1" height="1" fill="#FFFFFF" />
<rect x="11" y="3" width="1" height="1" fill="#FFFFFF" />
<rect x="19" y="3" width="1" height="1" fill="#FFFFFF" />
<rect x="11" y="5" width="1" height="1" fill="#FFFFFF" />
<rect x="19" y="5" width="1" height="1" fill="#FFFFFF" />
<rect x="11" y="7" width="1" height="1" fill="#FFFFFF" />
<rect x="19" y="7" width="1" height="1" fill="#FFFFFF" />
<rect x="11" y="8" width="1" height="1" fill="#FFFFFF" />
<rect x="12" y="8" width="1" height="1" fill="#FFFFFF" />
<rect x="14" y="8" width="1" height="1" fill="#FFFFFF" />
<rect x="16" y="8" width="1" height="1" fill="#FFFFFF" />
<rect x="18" y="8" width="1" height="1" fill="#FFFFFF" />
<rect x="19" y="8" width="1" height="1" fill="#FFFFFF" />
<rect x="15" y="12" width="1" height="1" fill="#FFFFFF" />
<rect x="15" y="13" width="1" height="1" fill="#FFFFFF" />
<rect x="15" y="14" width="1" height="1" fill="#FFFFFF" />
<rect x="3" y="15" width="1" height="1" fill="#FFFFFF" />
<rect x="4" y="15" width="1" height="1" fill="#FFFFFF" />
<rect x="5" y="15" width="1" height="1" fill="#FFFFFF" />
<rect x="6" y="15" width="1" height="1" fill="#FFFFFF" />
<rect x="7" y="15" width="1" height="1" fill="#FFFFFF" />
<rect x="15" y="15" width="1" height="1" fill="#FFFFFF" />
<rect x="23" y="15" width="1" height="1" fill="#FFFFFF" />
<rect x="24" y="15" width="1" height="1" fill="#FFFFFF" />
<rect x="25" y="15" width="1" height="1" fill="#FFFFFF" />
<rect x="26" y="15" width="1" height="1" fill="#FFFFFF" />
<rect x="27" y="15" width="1" height="1" fill="#FFFFFF" />
<rect x="28" y="15" width="1" height="1" fill="#FFFFFF" />
<rect x="29" y="15" width="1" height="1" fill="#FFFFFF" />
<rect x="30" y="15" width="1" height="1" fill="#FFFFFF" />
<rect x="31" y="15" width="1" height="1" fill="#FFFFFF" />
<rect x="3" y="16" width="1" height="1" fill="#FFFFFF" />
<rect x="7" y="16" width="1" height="1" fill="#FFFFFF" />
<rect x="15" y="16" width="1" height="1" fill="#FFFFFF" />
<rect x="23" y="16" width="1" height="1" fill="#FFFFFF" />
<rect x="31" y="16" width="1" height="1" fill="#FFFFFF" />
<rect x="3" y="17" width="1" height="1" fill="#FFFFFF" />
<rect x="7" y="17" width="1" height="1" fill="#FFFFFF" />
<rect x="15" y="17" width="1" height="1" fill="#FFFFFF" />
<rect x="23" y="17" width="1" height="1" fill="#FFFFFF" />
<rect x="31" y="17" width="1" height="1" fill="#FFFFFF" />
<rect x="3" y="18" width="1" height="1" fill="#FFFFFF" />
<rect x="7" y="18" width="1" height="1" fill="#FFFFFF" />
<rect x="14" y="18" width="1" height="1" fill="#FFFFFF" />
<rect x="15" y="18" width="1" height="1" fill="#FFFFFF" />
<rect x="16" y="18" width="1" height="1" fill="#FFFFFF" />
<rect x="23" y="18" width="1" height="1" fill="#FFFFFF" />
<rect x="31" y="18" width="1" height="1" fill="#FFFFFF" />
<rect x="3" y="19" width="1" height="1" fill="#FFFFFF" />
<rect x="7" y="19" width="1" height="1" fill="#FFFFFF" />
<rect x="15" y="19" width="1" height="1" fill="#FFFFFF" />
<rect x="23" y="19" width="1" height="1" fill="#FFFFFF" />
<rect x="27" y="19" width="1" height="1" fill="#FFFFFF" />
<rect x="28" y="19" width="1" height="1" fill="#FFFFFF" />
<rect x="29" y="19" width="1" height="1" fill="#FFFFFF" />
<rect x="30" y="19" width="1" height="1" fill="#FFFFFF" />
<rect x="31" y="19" width="1" height="1" fill="#FFFFFF" />
<rect x="3" y="20" width="1" height="1" fill="#FFFFFF" />
<rect x="7" y="20" width="1" height="1" fill="#FFFFFF" />
<rect x="23" y="20" width="1" height="1" fill="#FFFFFF" />
<rect x="27" y="20" width="1" height="1" fill="#FFFFFF" />
<rect x="31" y="20" width="1" height="1" fill="#FFFFFF" />
<rect x="3" y="21" width="1" height="1" fill="#FFFFFF" />
<rect x="7" y="21" width="1" height="1" fill="#FFFFFF" />
<rect x="23" y="21" width="1" height="1" fill="#FFFFFF" />
<rect x="27" y="21" width="1" height="1" fill="#FFFFFF" />
<rect x="31" y="21" width="1" height="1" fill="#FFFFFF" />
<rect x="3" y="22" width="1" height="1" fill="#FFFFFF" />
<rect x="7" y="22" width="1" height="1" fill="#FFFFFF" />
<rect x="23" y="22" width="1" height="1" fill="#FFFFFF" />
<rect x="27" y="22" width="1" height="1" fill="#FFFFFF" />
<rect x="31" y="22" width="1" height="1" fill="#FFFFFF" />
<rect x="3" y="23" width="1" height="1" fill="#FFFFFF" />
<rect x="7" y="23" width="1" height="1" fill="#FFFFFF" />
<rect x="11" y="23" width="1" height="1" fill="#FFFFFF" />
<rect x="12" y="23" width="1" height="1" fill="#FFFFFF" />
<rect x="13" y="23" width="1" height="1" fill="#FFFFFF" />
<rect x="14" y="23" width="1" height="1" fill="#FFFFFF" />
<rect x="15" y="23" width="1" height="1" fill="#FFFFFF" />
<rect x="16" y="23" width="1" height="1" fill="#FFFFFF" />
<rect x="17" y="23" width="1" height="1" fill="#FFFFFF" />
<rect x="18" y="23" width="1" height="1" fill="#FFFFFF" />
<rect x="19" y="23" width="1" height="1" fill="#FFFFFF" />
<rect x="23" y="23" width="1" height="1" fill="#FFFFFF" />
<rect x="27" y="23" width="1" height="1" fill="#FFFFFF" />
<rect x="31" y="23" width="1" height="1" fill="#FFFFFF" />
<rect x="3" y="24" width="1" height="1" fill="#FFFFFF" />
<rect x="7" y="24" width="1" height="1" fill="#FFFFFF" />
<rect x="11" y="24" width="1" height="1" fill="#FFFFFF" />
<rect x="19" y="24" width="1" height="1" fill="#FFFFFF" />
<rect x="23" y="24" width="1" height="1" fill="#FFFFFF" />
<rect x="27" y="24" width="1" height="1" fill="#FFFFFF" />
<rect x="31" y="24" width="1" height="1" fill="#FFFFFF" />
<rect x="3" y="25" width="1" height="1" fill="#FFFFFF" />
<rect x="7" y="25" width="1" height="1" fill="#FFFFFF" />
<rect x="11" y="25" width="1" height="1" fill="#FFFFFF" />
<rect x="19" y="25" width="1" height="1" fill="#FFFFFF" />
<rect x="23" y="25" width="1" height="1" fill="#FFFFFF" />
<rect x="27" y="25" width="1" height="1" fill="#FFFFFF" />
<rect x="31" y="25" width="1" height="1" fill="#FFFFFF" />
<rect x="3" y="26" width="1" height="1" fill="#FFFFFF" />
<rect x="7" y="26" width="1" height="1" fill="#FFFFFF" />
<rect x="11" y="26" width="1" height="1" fill="#FFFFFF" />
<rect x="19" y="26" width="1" height="1" fill="#FFFFFF" />
<rect x="23" y="26" width="1" height="1" fill="#FFFFFF" />
<rect x="27" y="26" width="1" height="1" fill="#FFFFFF" />
<rect x="31" y="26" width="1" height="1" fill="#FFFFFF" />
<rect x="3" y="27" width="1" height="1" fill="#FFFFFF" />
<rect x="7" y="27" width="1" height="1" fill="#FFFFFF" />
<rect x="11" y="27" width="1" height="1" fill="#FFFFFF" />
<rect x="19" y="27" width="1" height="1" fill="#FFFFFF" />
<rect x="23" y="27" width="1" height="1" fill="#FFFFFF" />
<rect x="24" y="27" width="1" height="1" fill="#FFFFFF" />
<rect x="25" y="27" width="1" height="1" fill="#FFFFFF" />
<rect x="26" y="27" width="1" height="1" fill="#FFFFFF" />
<rect x="27" y="27" width="1" height="1" fill="#FFFFFF" />
<rect x="31" y="27" width="1" height="1" fill="#FFFFFF" />
<rect x="3" y="28" width="1" height="1" fill="#FFFFFF" />
<rect x="7" y="28" width="1" height="1" fill="#FFFFFF" />
<rect x="11" y="28" width="1" height="1" fill="#FFFFFF" />
<rect x="19" y="28" width="1" height="1" fill="#FFFFFF" />
<rect x="23" y="28" width="1" height="1" fill="#FFFFFF" />
<rect x="31" y="28" width="1" height="1" fill="#FFFFFF" />
<rect x="3" y="29" width="1" height="1" fill="#FFFFFF" />
<rect x="7" y="29" width="1" height="1" fill="#FFFFFF" />
<rect x="11" y="29" width="1" height="1" fill="#FFFFFF" />
<rect x="19" y="29" width="1" height="1" fill="#FFFFFF" />
<rect x="23" y="29" width="1" height="1" fill="#FFFFFF" />
<rect x="31" y="29" width="1" height="1" fill="#FFFFFF" />
<rect x="3" y="30" width="1" height="1" fill="#FFFFFF" />
<rect x="7" y="30" width="1" height="1" fill="#FFFFFF" />
<rect x="11" y="30" width="1" height="1" fill="#FFFFFF" />
<rect x="19" y="30" width="1" height="1" fill="#FFFFFF" />
<rect x="23" y="30" width="1" height="1" fill="#FFFFFF" />
<rect x="31" y="30" width="1" height="1" fill="#FFFFFF" />
<rect x="3" y="31" width="1" height="1" fill="#FFFFFF" />
<rect x="4" y="31" width="1" height="1" fill="#FFFFFF" />
<rect x="5" y="31" width="1" height="1" fill="#FFFFFF" />
<rect x="6" y="31" width="1" height="1" fill="#FFFFFF" />
<rect x="7" y="31" width="1" height="1" fill="#FFFFFF" />
<rect x="11" y="31" width="1" height="1" fill="#FFFFFF" />
<rect x="12" y="31" width="1" height="1" fill="#FFFFFF" />
<rect x="13" y="31" width="1" height="1" fill="#FFFFFF" />
<rect x="14" y="31" width="1" height="1" fill="#FFFFFF" />
<rect x="15" y="31" width="1" height="1" fill="#FFFFFF" />
<rect x="16" y="31" width="1" height="1" fill="#FFFFFF" />
<rect x="17" y="31" width="1" height="1" fill="#FFFFFF" />
<rect x="18" y="31" width="1" height="1" fill="#FFFFFF" />
<rect x="19" y="31" width="1" height="1" fill="#FFFFFF" />
<rect x="23" y="31" width="1" height="1" fill="#FFFFFF" />
<rect x="24" y="31" width="1" height="1" fill="#FFFFFF" />
<rect x="25" y="31" width="1" height="1" fill="#FFFFFF" />
<rect x="26" y="31" width="1" height="1" fill="#FFFFFF" />
<rect x="27" y="31" width="1" height="1" fill="#FFFFFF" />
<rect x="28" y="31" width="1" height="1" fill="#FFFFFF" />
<rect x="29" y="31" width="1" height="1" fill="#FFFFFF" />
<rect x="30" y="31" width="1" height="1" fill="#FFFFFF" />
<rect x="31" y="31" width="1" height="1" fill="#FFFFFF" />
</svg>