<?xml version="1.0" encoding="UTF-8" ?>
<svg version="1.1" width="32" height="32" xmlns="http://www.w3.org/2000/svg" shape-rendering="crispEdges">
<rect x="11" y="2" width="1" height="1" fill="#FFFFFF" />
<rect x="19" y="2" width="1" height="1" fill="#FFFFFF" />
<rect x="11" y="3" width="1" height="1" fill="#FFFFFF" />
<rect x="19" y="3" width="1" height="1" fill="#FFFFFF" />
<rect x="5" y="4" width="1" height="1" fill="#FFFFFF" />
<rect x="11" y="4" width="1" height="1" fill="#FFFFFF" />
<rect x="12" y="4" width="1" height="1" fill="#FFFFFF" />
<rect x="18" y="4" width="1" height="1" fill="#FFFFFF" />
<rect x="19" y="4" width="1" height="1" fill="#FFFFFF" />
<rect x="26" y="4" width="1" height="1" fill="#FFFFFF" />
<rect x="5" y="5" width="1" height="1" fill="#FFFFFF" />
<rect x="6" y="5" width="1" height="1" fill="#FFFFFF" />
<rect x="12" y="5" width="1" height="1" fill="#FFFFFF" />
<rect x="18" y="5" width="1" height="1" fill="#FFFFFF" />
<rect x="25" y="5" width="1" height="1" fill="#FFFFFF" />
<rect x="26" y="5" width="1" height="1" fill="#FFFFFF" />
<rect x="6" y="6" width="1" height="1" fill="#FFFFFF" />
<rect x="7" y="6" width="1" height="1" fill="#FFFFFF" />
<rect x="12" y="6" width="1" height="1" fill="#FFFFFF" />
<rect x="18" y="6" width="1" height="1" fill="#FFFFFF" />
<rect x="24" y="6" width="1" height="1" fill="#FFFFFF" />
<rect x="25" y="6" width="1" height="1" fill="#FFFFFF" />
<rect x="0" y="7" width="1" height="1" fill="#FFFFFF" />
<rect x="7" y="7" width="1" height="1" fill="#FFFFFF" />
<rect x="24" y="7" width="1" height="1" fill="#FFFFFF" />
<rect x="31" y="7" width="1" height="1" fill="#FFFFFF" />
<rect x="0" y="8" width="1" height="1" fill="#FFFFFF" />
<rect x="1" y="8" width="1" height="1" fill="#FFFFFF" />
<rect x="30" y="8" width="1" height="1" fill="#FFFFFF" />
<rect x="31" y="8" width="1" height="1" fill="#FFFFFF" />
<rect x="1" y="9" width="1" height="1" fill="#FFFFFF" />
<rect x="2" y="9" width="1" height="1" fill="#FFFFFF" />
<rect x="10" y="9" width="1" height="1" fill="#FFFFFF" />
<rect x="11" y="9" width="1" height="1" fill="#FFFFFF" />
<rect x="12" y="9" width="1" height="1" fill="#FFFFFF" />
<rect x="13" y="9" width="1" height="1" fill="#FFFFFF" />
<rect x="14" y="9" width="1" height="1" fill="#FFFFFF" />
<rect x="15" y="9" width="1" height="1" fill="#FFFFFF" />
<rect x="16" y="9" width="1" height="1" fill="#FFFFFF" />
<rect x="17" y="9" width="1" height="1" fill="#FFFFFF" />
<rect x="18" y="9" width="1" height="1" fill="#FFFFFF" />
<rect x="19" y="9" width="1" height="1" fill="#FFFFFF" />
<rect x="20" y="9" width="1" height="1" fill="#FFFFFF" />
<rect x="21" y="9" width="1" height="1" fill="#FFFFFF" />
<rect x="29" y="9" width="1" height="1" fill="#FFFFFF" />
<rect x="30" y="9" width="1" height="1" fill="#FFFFFF" />
<rect x="2" y="10" width="1" height="1" fill="#FFFFFF" />
<rect x="6" y="10" width="1" height="1" fill="#FFFFFF" />
<rect x="7" y="10" width="1" height="1" fill="#FFFFFF" />
<rect x="8" y="10" width="1" height="1" fill="#FFFFFF" />
<rect x="9" y="10" width="1" height="1" fill="#FFFFFF" />
<rect x="10" y="10" width="1" height="1" fill="#FFFFFF" />
<rect x="11" y="10" width="1" height="1" fill="#FFFFFF" />
<rect x="20" y="10" width="1" height="1" fill="#FFFFFF" />
<rect x="21" y="10" width="1" height="1" fill="#FFFFFF" />
<rect x="22" y="10" width="1" height="1" fill="#FFFFFF" />
<rect x="23" y="10" width="1" height="1" fill="#FFFFFF" />
<rect x="24" y="10" width="1" height="1" fill="#FFFFFF" />
<rect x="25" y="10" width="1" height="1" fill="#FFFFFF" />
<rect x="29" y="10" width="1" height="1" fill="#FFFFFF" />
<rect x="4" y="11" width="1" height="1" fill="#FFFFFF" />
<rect x="5" y="11" width="1" height="1" fill="#FFFFFF" />
<rect x="6" y="11" width="1" height="1" fill="#FFFFFF" />
<rect x="7" y="11" width="1" height="1" fill="#FFFFFF" />
<rect x="11" y="11" width="1" height="1" fill="#FFFFFF" />
<rect x="14" y="11" width="1" height="1" fill="#FFFFFF" />
<rect x="15" y="11" width="1" height="1" fill="#FFFFFF" />
<rect x="16" y="11" width="1" height="1" fill="#FFFFFF" />
<rect x="17" y="11" width="1" height="1" fill="#FFFFFF" />
<rect x="20" y="11" width="1" height="1" fill="#FFFFFF" />
<rect x="24" y="11" width="1" height="1" fill="#FFFFFF" />
<rect x="25" y="11" width="1" height="1" fill="#FFFFFF" />
<rect x="26" y="11" width="1" height="1" fill="#FFFFFF" />
<rect x="27" y="11" width="1" height="1" fill="#FFFFFF" />
<rect x="2" y="12" width="1" height="1" fill="#FFFFFF" />
<rect x="3" y="12" width="1" height="1" fill="#FFFFFF" />
<rect x="4" y="12" width="1" height="1" fill="#FFFFFF" />
<rect x="10" y="12" width="1" height="1" fill="#FFFFFF" />
<rect x="13" y="12" width="1" height="1" fill="#FFFFFF" />
<rect x="14" y="12" width="1" height="1" fill="#FFFFFF" />
<rect x="17" y="12" width="1" height="1" fill="#FFFFFF" />
<rect x="18" y="12" width="1" height="1" fill="#FFFFFF" />
<rect x="21" y="12" width="1" height="1" fill="#FFFFFF" />
<rect x="27" y="12" width="1" height="1" fill="#FFFFFF" />
<rect x="28" y="12" width="1" height="1" fill="#FFFFFF" />
<rect x="29" y="12" width="1" height="1" fill="#FFFFFF" />
<rect x="1" y="13" width="1" height="1" fill="#FFFFFF" />
<rect x="2" y="13" width="1" height="1" fill="#FFFFFF" />
<rect x="10" y="13" width="1" height="1" fill="#FFFFFF" />
<rect x="13" y="13" width="1" height="1" fill="#FFFFFF" />
<rect x="18" y="13" width="1" height="1" fill="#FFFFFF" />
<rect x="21" y="13" width="1" height="1" fill="#FFFFFF" />
<rect x="29" y="13" width="1" height="1" fill="#FFFFFF" />
<rect x="30" y="13" width="1" height="1" fill="#FFFFFF" />
<rect x="0" y="14" width="1" height="1" fill="#FFFFFF" />
<rect x="1" y="14" width="1" height="1" fill="#FFFFFF" />
<rect x="10" y="14" width="1" height="1" fill="#FFFFFF" />
<rect x="13" y="14" width="1" height="1" fill="#FFFFFF" />
<rect x="18" y="14" width="1" height="1" fill="#FFFFFF" />
<rect x="21" y="14" width="1" height="1" fill="#FFFFFF" />
<rect x="30" y="14" width="1" height="1" fill="#FFFFFF" />
<rect x="31" y="14" width="1" height="1" fill="#FFFFFF" />
<rect x="0" y="15" width="1" height="1" fill="#FFFFFF" />
<rect x="10" y="15" width="1" height="1" fill="#FFFFFF" />
<rect x="13" y="15" width="1" height="1" fill="#FFFFFF" />
<rect x="14" y="15" width="1" height="1" fill="#FFFFFF" />
<rect x="17" y="15" width="1" height="1" fill="#FFFFFF" />
<rect x="18" y="15" width="1" height="1" fill="#FFFFFF" />
<rect x="21" y="15" width="1" height="1" fill="#FFFFFF" />
<rect x="31" y="15" width="1" height="1" fill="#FFFFFF" />
<rect x="0" y="16" width="1" height="1" fill="#FFFFFF" />
<rect x="11" y="16" width="1" height="1" fill="#FFFFFF" />
<rect x="14" y="16" width="1" height="1" fill="#FFFFFF" />
<rect x="15" y="16" width="1" height="1" fill="#FFFFFF" />
<rect x="16" y="16" width="1" height="1" fill="#FFFFFF" />
<rect x="17" y="16" width="1" height="1" fill="#FFFFFF" />
<rect x="20" y="16" width="1" height="1" fill="#FFFFFF" />
<rect x="31" y="16" width="1" height="1" fill="#FFFFFF" />
<rect x="0" y="17" width="1" height="1" fill="#FFFFFF" />
<rect x="1" y="17" width="1" height="1" fill="#FFFFFF" />
<rect x="11" y="17" width="1" height="1" fill="#FFFFFF" />
<rect x="20" y="17" width="1" height="1" fill="#FFFFFF" />
<rect x="30" y="17" width="1" height="1" fill="#FFFFFF" />
<rect x="31" y="17" width="1" height="1" fill="#FFFFFF" />
<rect x="1" y="18" width="1" height="1" fill="#FFFFFF" />
<rect x="2" y="18" width="1" height="1" fill="#FFFFFF" />
<rect x="12" y="18" width="1" height="1" fill="#FFFFFF" />
<rect x="13" y="18" width="1" height="1" fill="#FFFFFF" />
<rect x="18" y="18" width="1" height="1" fill="#FFFFFF" />
<rect x="19" y="18" width="1" height="1" fill="#FFFFFF" />
<rect x="29" y="18" width="1" height="1" fill="#FFFFFF" />
<rect x="30" y="18" width="1" height="1" fill="#FFFFFF" />
<rect x="2" y="19" width="1" height="1" fill="#FFFFFF" />
<rect x="3" y="19" width="1" height="1" fill="#FFFFFF" />
<rect x="4" y="19" width="1" height="1" fill="#FFFFFF" />
<rect x="14" y="19" width="1" height="1" fill="#FFFFFF" />
<rect x="15" y="19" width="1" height="1" fill="#FFFFFF" />
<rect x="16" y="19" width="1" height="1" fill="#FFFFFF" />
<rect x="17" y="19" width="1" height="1" fill="#FFFFFF" />
<rect x="27" y="19" width="1" height="1" fill="#FFFFFF" />
<rect x="28" y="19" width="1" height="1" fill="#FFFFFF" />
<rect x="29" y="19" width="1" height="1" fill="#FFFFFF" />
<rect x="4" y="20" width="1" height="1" fill="#FFFFFF" />
<rect x="5" y="20" width="1" height="1" fill="#FFFFFF" />
<rect x="6" y="20" width="1" height="1" fill="#FFFFFF" />
<rect x="25" y="20" width="1" height="1" fill="#FFFFFF" />
<rect x="26" y="20" width="1" height="1" fill="#FFFFFF" />
<rect x="27" y="20" width="1" height="1" fill="#FFFFFF" />
<rect x="6" y="21" width="1" height="1" fill="#FFFFFF" />
<rect x="7" y="21" width="1" height="1" fill="#FFFFFF" />
<rect x="8" y="21" width="1" height="1" fill="#FFFFFF" />
<rect x="9" y="21" width="1" height="1" fill="#FFFFFF" />
<rect x="22" y="21" width="1" height="1" fill="#FFFFFF" />
<rect x="23" y="21" width="1" height="1" fill="#FFFFFF" />
<rect x="24" y="21" width="1" height="1" fill="#FFFFFF" />
<rect x="25" y="21" width="1" height="1" fill="#FFFFFF" />
<rect x="9" y="22" width="1" height="1" fill="#FFFFFF" />
<rect x="10" y="22" width="1" height="1" fill="#FFFFFF" />
<rect x="11" y="22" width="1" height="1" fill="#FFFFFF" />
<rect x="12" y="22" width="1" height="1" fill="#FFFFFF" />
<rect x="13" y="22" width="1" height="1" fill="#FFFFFF" />
<rect x="14" y="22" width="1" height="1" fill="#FFFFFF" />
<rect x="15" y="22" width="1" height="1" fill="#FFFFFF" />
<rect x="16" y="22" width="1" height="1" fill="#FFFFFF" />
<rect x="17" y="22" width="1" height="1" fill="#FFFFFF" />
<rect x="18" y="22" width="1" height="1" fill="#FFFFFF" />
<rect x="19" y="22" width="1" height="1" fill="#FFFFFF" />
<rect x="20" y="22" width="1" height="1" fill="#FFFFFF" />
<rect x="21" y="22" width="1" height="1" fill="#FFFFFF" />
<rect x="22" y="22" width="1" height="1" fill="#FFFFFF" />
<rect x="6" y="23" width="1" height="1" fill="#FFFFFF" />
<rect x="25" y="23" width="1" height="1" fill="#FFFFFF" />
<rect x="6" y="24" width="1" height="1" fill="#FFFFFF" />
<rect x="8" y="24" width="1" height="1" fill="#FFFFFF" />
<rect x="14" y="24" width="1" height="1" fill="#FFFFFF" />
<rect x="17" y="24" width="1" height="1" fill="#FFFFFF" />
<rect x="23" y="24" width="1" height="1" fill="#FFFFFF" />
<rect x="25" y="24" width="1" height="1" fill="#FFFFFF" />
<rect x="5" y="25" width="1" height="1" fill="#FFFFFF" />
<rect x="8" y="25" width="1" height="1" fill="#FFFFFF" />
<rect x="14" y="25" width="1" height="1" fill="#FFFFFF" />
<rect x="17" y="25" width="1" height="1" fill="#FFFFFF" />
<rect x="23" y="25" width="1" height="1" fill="#FFFFFF" />
<rect x="26" y="25" width="1" height="1" fill="#FFFFFF" />
<rect x="7" y="26" width="1" height="1" fill="#FFFFFF" />
<rect x="8" y="26" width="1" height="1" fill="#FFFFFF" />
<rect x="23" y="26" width="1" height="1" fill="#FFFFFF" />
<rect x="24" y="26" width="1" height="1" fill="#FFFFFF" />
<rect x="6" y="27" width="1" height="1" fill="#FFFFFF" />
<rect x="7" y="27" width="1" height="1" fill="#FFFFFF" />
<rect x="24" y="27" width="1" height="1" fill="#FFFFFF" />
<rect x="25" y="27" width="1" height="1" fill="#FFFFFF" />
</svg>